<mxfile host="Electron" modified="2023-05-09T15:31:45.645Z" agent="Mozilla/5.0 (Windows NT 10.0; Win64; x64) AppleWebKit/537.36 (KHTML, like Gecko) draw.io/21.2.8 Chrome/112.0.5615.165 Electron/24.2.0 Safari/537.36" etag="G__yRhr3_MbzBzPfJHZs" version="21.2.8" type="device">
  <diagram id="C5RBs43oDa-KdzZeNtuy" name="Page-1">
    <mxGraphModel dx="1548" dy="894" grid="1" gridSize="10" guides="1" tooltips="1" connect="1" arrows="1" fold="1" page="1" pageScale="1" pageWidth="827" pageHeight="1169" math="0" shadow="0">
      <root>
        <mxCell id="WIyWlLk6GJQsqaUBKTNV-0" />
        <mxCell id="WIyWlLk6GJQsqaUBKTNV-1" parent="WIyWlLk6GJQsqaUBKTNV-0" />
        <mxCell id="YxoIRfYuSTvwmyHmI72a-3" value="ANIMAL" style="swimlane;" parent="WIyWlLk6GJQsqaUBKTNV-1" vertex="1">
          <mxGeometry x="170" y="120" width="130" height="130" as="geometry">
            <mxRectangle x="60" y="50" width="70" height="23" as="alternateBounds" />
          </mxGeometry>
        </mxCell>
        <mxCell id="YxoIRfYuSTvwmyHmI72a-7" value="ID ANIMAL&lt;br&gt;NOMBRE&lt;br&gt;ESPECIE&lt;br&gt;EDAD&lt;br&gt;PAIS DE ORIGEN" style="text;html=1;align=left;verticalAlign=middle;resizable=0;points=[];autosize=1;strokeColor=none;fillColor=none;" parent="YxoIRfYuSTvwmyHmI72a-3" vertex="1">
          <mxGeometry x="10" y="30" width="110" height="80" as="geometry" />
        </mxCell>
        <mxCell id="YxoIRfYuSTvwmyHmI72a-8" value="HÁBITAT" style="swimlane;" parent="WIyWlLk6GJQsqaUBKTNV-1" vertex="1">
          <mxGeometry x="160" y="480" width="150" height="110" as="geometry">
            <mxRectangle x="200" y="50" width="80" height="23" as="alternateBounds" />
          </mxGeometry>
        </mxCell>
        <mxCell id="YxoIRfYuSTvwmyHmI72a-9" value="ID HABITAT&lt;br&gt;NOMBRE&lt;br&gt;TIPO&lt;br&gt;CAPACIDAD MÁXIMA" style="text;html=1;strokeColor=none;fillColor=none;align=left;verticalAlign=middle;whiteSpace=wrap;rounded=0;" parent="YxoIRfYuSTvwmyHmI72a-8" vertex="1">
          <mxGeometry x="10" y="30" width="130" height="80" as="geometry" />
        </mxCell>
        <mxCell id="YxoIRfYuSTvwmyHmI72a-10" value="ALIMENTACIÓN" style="swimlane;" parent="WIyWlLk6GJQsqaUBKTNV-1" vertex="1">
          <mxGeometry x="660" y="200" width="150" height="110" as="geometry">
            <mxRectangle x="400" y="50" width="120" height="23" as="alternateBounds" />
          </mxGeometry>
        </mxCell>
        <mxCell id="YxoIRfYuSTvwmyHmI72a-11" value="ID ALIMENTACIÓN&amp;nbsp;&lt;br&gt;NOMBRE&lt;br&gt;DESCRIPCIÓN&lt;br&gt;CANTIDAD DIARIA" style="text;html=1;align=left;verticalAlign=middle;resizable=0;points=[];autosize=1;strokeColor=none;fillColor=none;" parent="YxoIRfYuSTvwmyHmI72a-10" vertex="1">
          <mxGeometry x="10" y="30" width="120" height="60" as="geometry" />
        </mxCell>
        <mxCell id="YxoIRfYuSTvwmyHmI72a-12" value="EMPLEADO" style="swimlane;" parent="WIyWlLk6GJQsqaUBKTNV-1" vertex="1">
          <mxGeometry x="660" y="480" width="150" height="110" as="geometry">
            <mxRectangle x="640" y="50" width="100" height="23" as="alternateBounds" />
          </mxGeometry>
        </mxCell>
        <mxCell id="YxoIRfYuSTvwmyHmI72a-13" value="ID EMPLEADO&lt;br&gt;NOMBRE&lt;br&gt;EDAD&lt;br&gt;PUESTO&lt;br&gt;SALARIO" style="text;html=1;align=left;verticalAlign=middle;resizable=0;points=[];autosize=1;strokeColor=none;fillColor=none;" parent="YxoIRfYuSTvwmyHmI72a-12" vertex="1">
          <mxGeometry x="10" y="25" width="100" height="80" as="geometry" />
        </mxCell>
        <mxCell id="YxoIRfYuSTvwmyHmI72a-14" value="ESPECTÁCULO" style="swimlane;" parent="WIyWlLk6GJQsqaUBKTNV-1" vertex="1">
          <mxGeometry x="660" y="40" width="150" height="100" as="geometry">
            <mxRectangle x="170" y="250" width="120" height="23" as="alternateBounds" />
          </mxGeometry>
        </mxCell>
        <mxCell id="YxoIRfYuSTvwmyHmI72a-16" value="ID ESPECTÁCULO&lt;br&gt;NOMBRE&lt;br&gt;DESCRIPCIÓN&lt;br&gt;FECHA Y HORA" style="text;html=1;align=left;verticalAlign=middle;resizable=0;points=[];autosize=1;strokeColor=none;fillColor=none;" parent="YxoIRfYuSTvwmyHmI72a-14" vertex="1">
          <mxGeometry x="5" y="25" width="130" height="70" as="geometry" />
        </mxCell>
        <mxCell id="YxoIRfYuSTvwmyHmI72a-17" value="VISITANTE" style="swimlane;" parent="WIyWlLk6GJQsqaUBKTNV-1" vertex="1">
          <mxGeometry x="180" y="730" width="110" height="110" as="geometry" />
        </mxCell>
        <mxCell id="YxoIRfYuSTvwmyHmI72a-18" value="ID VISITANTE&lt;br&gt;NOMBRE&lt;br&gt;EDAD&lt;br&gt;FECHA VISITA" style="text;html=1;align=left;verticalAlign=middle;resizable=0;points=[];autosize=1;strokeColor=none;fillColor=none;" parent="YxoIRfYuSTvwmyHmI72a-17" vertex="1">
          <mxGeometry x="5" y="30" width="100" height="70" as="geometry" />
        </mxCell>
        <mxCell id="vBIdpSivlz-trKIh2wIM-1" value="" style="endArrow=none;html=1;rounded=0;entryX=0.5;entryY=0;entryDx=0;entryDy=0;" parent="WIyWlLk6GJQsqaUBKTNV-1" source="vBIdpSivlz-trKIh2wIM-16" target="YxoIRfYuSTvwmyHmI72a-17" edge="1">
          <mxGeometry relative="1" as="geometry">
            <mxPoint x="430" y="530" as="sourcePoint" />
            <mxPoint x="590" y="530" as="targetPoint" />
          </mxGeometry>
        </mxCell>
        <mxCell id="vBIdpSivlz-trKIh2wIM-2" value="" style="endArrow=none;html=1;rounded=0;" parent="WIyWlLk6GJQsqaUBKTNV-1" source="vBIdpSivlz-trKIh2wIM-23" target="YxoIRfYuSTvwmyHmI72a-10" edge="1">
          <mxGeometry relative="1" as="geometry">
            <mxPoint x="470" y="434" as="sourcePoint" />
            <mxPoint x="565" y="495" as="targetPoint" />
          </mxGeometry>
        </mxCell>
        <mxCell id="vBIdpSivlz-trKIh2wIM-3" value="" style="endArrow=none;html=1;rounded=0;" parent="WIyWlLk6GJQsqaUBKTNV-1" source="vBIdpSivlz-trKIh2wIM-29" target="YxoIRfYuSTvwmyHmI72a-14" edge="1">
          <mxGeometry relative="1" as="geometry">
            <mxPoint x="480" y="444" as="sourcePoint" />
            <mxPoint x="575" y="505" as="targetPoint" />
          </mxGeometry>
        </mxCell>
        <mxCell id="vBIdpSivlz-trKIh2wIM-4" value="" style="endArrow=none;html=1;rounded=0;entryX=0.5;entryY=0;entryDx=0;entryDy=0;" parent="WIyWlLk6GJQsqaUBKTNV-1" source="YxoIRfYuSTvwmyHmI72a-3" target="YxoIRfYuSTvwmyHmI72a-8" edge="1">
          <mxGeometry relative="1" as="geometry">
            <mxPoint x="490" y="454" as="sourcePoint" />
            <mxPoint x="585" y="515" as="targetPoint" />
          </mxGeometry>
        </mxCell>
        <mxCell id="vBIdpSivlz-trKIh2wIM-6" value="" style="endArrow=none;html=1;rounded=0;entryX=0;entryY=0.5;entryDx=0;entryDy=0;exitX=1;exitY=0.5;exitDx=0;exitDy=0;" parent="WIyWlLk6GJQsqaUBKTNV-1" source="vBIdpSivlz-trKIh2wIM-14" target="YxoIRfYuSTvwmyHmI72a-12" edge="1">
          <mxGeometry relative="1" as="geometry">
            <mxPoint x="510" y="544" as="sourcePoint" />
            <mxPoint x="605" y="605" as="targetPoint" />
          </mxGeometry>
        </mxCell>
        <mxCell id="vBIdpSivlz-trKIh2wIM-7" value="" style="endArrow=none;html=1;rounded=0;entryX=0;entryY=0.75;entryDx=0;entryDy=0;exitX=1;exitY=0;exitDx=0;exitDy=0;" parent="WIyWlLk6GJQsqaUBKTNV-1" source="vBIdpSivlz-trKIh2wIM-27" target="YxoIRfYuSTvwmyHmI72a-10" edge="1">
          <mxGeometry relative="1" as="geometry">
            <mxPoint x="520" y="484" as="sourcePoint" />
            <mxPoint x="615" y="545" as="targetPoint" />
          </mxGeometry>
        </mxCell>
        <mxCell id="vBIdpSivlz-trKIh2wIM-15" value="" style="endArrow=none;html=1;rounded=0;entryX=0;entryY=0.5;entryDx=0;entryDy=0;exitX=1;exitY=0.5;exitDx=0;exitDy=0;" parent="WIyWlLk6GJQsqaUBKTNV-1" source="YxoIRfYuSTvwmyHmI72a-8" target="vBIdpSivlz-trKIh2wIM-14" edge="1">
          <mxGeometry relative="1" as="geometry">
            <mxPoint x="310" y="465" as="sourcePoint" />
            <mxPoint x="660" y="465" as="targetPoint" />
          </mxGeometry>
        </mxCell>
        <mxCell id="vBIdpSivlz-trKIh2wIM-14" value="N:N" style="shape=rhombus;perimeter=rhombusPerimeter;whiteSpace=wrap;html=1;align=center;" parent="WIyWlLk6GJQsqaUBKTNV-1" vertex="1">
          <mxGeometry x="420" y="505" width="120" height="60" as="geometry" />
        </mxCell>
        <mxCell id="vBIdpSivlz-trKIh2wIM-19" value="" style="endArrow=none;html=1;rounded=0;entryX=0;entryY=0.5;entryDx=0;entryDy=0;" parent="WIyWlLk6GJQsqaUBKTNV-1" source="YxoIRfYuSTvwmyHmI72a-8" target="vBIdpSivlz-trKIh2wIM-16" edge="1">
          <mxGeometry relative="1" as="geometry">
            <mxPoint x="235" y="590" as="sourcePoint" />
            <mxPoint x="235" y="730" as="targetPoint" />
          </mxGeometry>
        </mxCell>
        <mxCell id="vBIdpSivlz-trKIh2wIM-16" value="" style="shape=rhombus;perimeter=rhombusPerimeter;whiteSpace=wrap;html=1;align=center;rotation=90;" parent="WIyWlLk6GJQsqaUBKTNV-1" vertex="1">
          <mxGeometry x="195" y="625" width="80" height="60" as="geometry" />
        </mxCell>
        <mxCell id="vBIdpSivlz-trKIh2wIM-20" value="&#xa;&lt;span style=&quot;color: rgb(0, 0, 0); font-family: Helvetica; font-size: 12px; font-style: normal; font-variant-ligatures: normal; font-variant-caps: normal; font-weight: 400; letter-spacing: normal; orphans: 2; text-align: center; text-indent: 0px; text-transform: none; widows: 2; word-spacing: 0px; -webkit-text-stroke-width: 0px; background-color: rgb(255, 255, 255); text-decoration-thickness: initial; text-decoration-style: initial; text-decoration-color: initial; float: none; display: inline !important;&quot;&gt;N:N&lt;/span&gt;&#xa;&#xa;" style="text;html=1;strokeColor=none;fillColor=none;align=center;verticalAlign=middle;whiteSpace=wrap;rounded=0;" parent="WIyWlLk6GJQsqaUBKTNV-1" vertex="1">
          <mxGeometry x="205" y="650" width="60" height="30" as="geometry" />
        </mxCell>
        <mxCell id="vBIdpSivlz-trKIh2wIM-21" value="" style="shape=rhombus;perimeter=rhombusPerimeter;whiteSpace=wrap;html=1;align=center;rotation=90;" parent="WIyWlLk6GJQsqaUBKTNV-1" vertex="1">
          <mxGeometry x="195" y="320" width="80" height="60" as="geometry" />
        </mxCell>
        <mxCell id="vBIdpSivlz-trKIh2wIM-22" value="1:N" style="text;html=1;strokeColor=none;fillColor=none;align=center;verticalAlign=middle;whiteSpace=wrap;rounded=0;" parent="WIyWlLk6GJQsqaUBKTNV-1" vertex="1">
          <mxGeometry x="205" y="340" width="60" height="30" as="geometry" />
        </mxCell>
        <mxCell id="vBIdpSivlz-trKIh2wIM-25" value="" style="endArrow=none;html=1;rounded=0;" parent="WIyWlLk6GJQsqaUBKTNV-1" source="YxoIRfYuSTvwmyHmI72a-12" target="vBIdpSivlz-trKIh2wIM-23" edge="1">
          <mxGeometry relative="1" as="geometry">
            <mxPoint x="735" y="480" as="sourcePoint" />
            <mxPoint x="735" y="310" as="targetPoint" />
          </mxGeometry>
        </mxCell>
        <mxCell id="vBIdpSivlz-trKIh2wIM-23" value="" style="shape=rhombus;perimeter=rhombusPerimeter;whiteSpace=wrap;html=1;align=center;rotation=90;" parent="WIyWlLk6GJQsqaUBKTNV-1" vertex="1">
          <mxGeometry x="695" y="360" width="80" height="60" as="geometry" />
        </mxCell>
        <mxCell id="vBIdpSivlz-trKIh2wIM-26" value="N:1" style="text;html=1;strokeColor=none;fillColor=none;align=center;verticalAlign=middle;whiteSpace=wrap;rounded=0;" parent="WIyWlLk6GJQsqaUBKTNV-1" vertex="1">
          <mxGeometry x="705" y="370" width="60" height="30" as="geometry" />
        </mxCell>
        <mxCell id="vBIdpSivlz-trKIh2wIM-28" value="" style="endArrow=none;html=1;rounded=0;entryX=0;entryY=0.75;entryDx=0;entryDy=0;exitX=1;exitY=0;exitDx=0;exitDy=0;" parent="WIyWlLk6GJQsqaUBKTNV-1" source="YxoIRfYuSTvwmyHmI72a-8" target="vBIdpSivlz-trKIh2wIM-27" edge="1">
          <mxGeometry relative="1" as="geometry">
            <mxPoint x="310" y="480" as="sourcePoint" />
            <mxPoint x="660" y="283" as="targetPoint" />
          </mxGeometry>
        </mxCell>
        <mxCell id="vBIdpSivlz-trKIh2wIM-27" value="N:1" style="shape=rhombus;perimeter=rhombusPerimeter;whiteSpace=wrap;html=1;align=center;" parent="WIyWlLk6GJQsqaUBKTNV-1" vertex="1">
          <mxGeometry x="440" y="355" width="120" height="60" as="geometry" />
        </mxCell>
        <mxCell id="vBIdpSivlz-trKIh2wIM-30" value="" style="endArrow=none;html=1;rounded=0;" parent="WIyWlLk6GJQsqaUBKTNV-1" source="YxoIRfYuSTvwmyHmI72a-3" target="vBIdpSivlz-trKIh2wIM-29" edge="1">
          <mxGeometry relative="1" as="geometry">
            <mxPoint x="300" y="173" as="sourcePoint" />
            <mxPoint x="660" y="104" as="targetPoint" />
          </mxGeometry>
        </mxCell>
        <mxCell id="vBIdpSivlz-trKIh2wIM-29" value="N:N" style="shape=rhombus;perimeter=rhombusPerimeter;whiteSpace=wrap;html=1;align=center;" parent="WIyWlLk6GJQsqaUBKTNV-1" vertex="1">
          <mxGeometry x="430" y="110" width="120" height="60" as="geometry" />
        </mxCell>
        <mxCell id="vBIdpSivlz-trKIh2wIM-31" value="VETERINARIO" style="swimlane;" parent="WIyWlLk6GJQsqaUBKTNV-1" vertex="1">
          <mxGeometry x="480" y="790" width="150" height="110" as="geometry">
            <mxRectangle x="640" y="50" width="100" height="23" as="alternateBounds" />
          </mxGeometry>
        </mxCell>
        <mxCell id="vBIdpSivlz-trKIh2wIM-32" value="ESPECIALIDAD&lt;br&gt;TELÉFONO" style="text;html=1;align=left;verticalAlign=middle;resizable=0;points=[];autosize=1;strokeColor=none;fillColor=none;" parent="vBIdpSivlz-trKIh2wIM-31" vertex="1">
          <mxGeometry x="10" y="25" width="110" height="40" as="geometry" />
        </mxCell>
        <mxCell id="vBIdpSivlz-trKIh2wIM-33" value="CUIDADOR" style="swimlane;" parent="WIyWlLk6GJQsqaUBKTNV-1" vertex="1">
          <mxGeometry x="660" y="790" width="150" height="110" as="geometry">
            <mxRectangle x="640" y="50" width="100" height="23" as="alternateBounds" />
          </mxGeometry>
        </mxCell>
        <mxCell id="vBIdpSivlz-trKIh2wIM-43" value="LISTA_ESPECIES&lt;br&gt;TÍTULOS&lt;br&gt;" style="text;html=1;align=left;verticalAlign=middle;resizable=0;points=[];autosize=1;strokeColor=none;fillColor=none;" parent="vBIdpSivlz-trKIh2wIM-33" vertex="1">
          <mxGeometry x="10" y="25" width="120" height="40" as="geometry" />
        </mxCell>
        <mxCell id="vBIdpSivlz-trKIh2wIM-35" value="LIMPIADOR" style="swimlane;" parent="WIyWlLk6GJQsqaUBKTNV-1" vertex="1">
          <mxGeometry x="840" y="790" width="150" height="110" as="geometry">
            <mxRectangle x="640" y="50" width="100" height="23" as="alternateBounds" />
          </mxGeometry>
        </mxCell>
        <mxCell id="vBIdpSivlz-trKIh2wIM-36" value="ZONA_LIMPIEZA" style="text;html=1;align=left;verticalAlign=middle;resizable=0;points=[];autosize=1;strokeColor=none;fillColor=none;" parent="vBIdpSivlz-trKIh2wIM-35" vertex="1">
          <mxGeometry x="15" y="25" width="120" height="30" as="geometry" />
        </mxCell>
        <mxCell id="vBIdpSivlz-trKIh2wIM-37" value="" style="triangle;whiteSpace=wrap;html=1;rotation=90;" parent="WIyWlLk6GJQsqaUBKTNV-1" vertex="1">
          <mxGeometry x="705" y="640" width="60" height="80" as="geometry" />
        </mxCell>
        <mxCell id="vBIdpSivlz-trKIh2wIM-38" value="es" style="text;html=1;strokeColor=none;fillColor=none;align=center;verticalAlign=middle;whiteSpace=wrap;rounded=0;" parent="WIyWlLk6GJQsqaUBKTNV-1" vertex="1">
          <mxGeometry x="717.5" y="657.5" width="35" height="15" as="geometry" />
        </mxCell>
        <mxCell id="vBIdpSivlz-trKIh2wIM-39" value="" style="endArrow=none;html=1;rounded=0;entryX=0.5;entryY=1;entryDx=0;entryDy=0;exitX=0;exitY=0.5;exitDx=0;exitDy=0;" parent="WIyWlLk6GJQsqaUBKTNV-1" source="vBIdpSivlz-trKIh2wIM-37" target="YxoIRfYuSTvwmyHmI72a-12" edge="1">
          <mxGeometry relative="1" as="geometry">
            <mxPoint x="550" y="545" as="sourcePoint" />
            <mxPoint x="670" y="545" as="targetPoint" />
          </mxGeometry>
        </mxCell>
        <mxCell id="vBIdpSivlz-trKIh2wIM-40" value="" style="endArrow=none;html=1;rounded=0;entryX=0.5;entryY=1;entryDx=0;entryDy=0;exitX=0.5;exitY=0;exitDx=0;exitDy=0;" parent="WIyWlLk6GJQsqaUBKTNV-1" source="vBIdpSivlz-trKIh2wIM-31" target="vBIdpSivlz-trKIh2wIM-37" edge="1">
          <mxGeometry relative="1" as="geometry">
            <mxPoint x="560" y="555" as="sourcePoint" />
            <mxPoint x="680" y="555" as="targetPoint" />
          </mxGeometry>
        </mxCell>
        <mxCell id="vBIdpSivlz-trKIh2wIM-41" value="" style="endArrow=none;html=1;rounded=0;entryX=1;entryY=0.5;entryDx=0;entryDy=0;exitX=0.5;exitY=0;exitDx=0;exitDy=0;" parent="WIyWlLk6GJQsqaUBKTNV-1" source="vBIdpSivlz-trKIh2wIM-33" target="vBIdpSivlz-trKIh2wIM-37" edge="1">
          <mxGeometry relative="1" as="geometry">
            <mxPoint x="570" y="565" as="sourcePoint" />
            <mxPoint x="690" y="565" as="targetPoint" />
          </mxGeometry>
        </mxCell>
        <mxCell id="vBIdpSivlz-trKIh2wIM-42" value="" style="endArrow=none;html=1;rounded=0;entryX=0.5;entryY=0;entryDx=0;entryDy=0;exitX=0.5;exitY=0;exitDx=0;exitDy=0;" parent="WIyWlLk6GJQsqaUBKTNV-1" source="vBIdpSivlz-trKIh2wIM-35" target="vBIdpSivlz-trKIh2wIM-37" edge="1">
          <mxGeometry relative="1" as="geometry">
            <mxPoint x="580" y="575" as="sourcePoint" />
            <mxPoint x="700" y="575" as="targetPoint" />
          </mxGeometry>
        </mxCell>
        <mxCell id="vBIdpSivlz-trKIh2wIM-44" value="1:1" style="text;html=1;strokeColor=none;fillColor=none;align=center;verticalAlign=middle;whiteSpace=wrap;rounded=0;" parent="WIyWlLk6GJQsqaUBKTNV-1" vertex="1">
          <mxGeometry x="720" y="600" width="60" height="30" as="geometry" />
        </mxCell>
        <mxCell id="vBIdpSivlz-trKIh2wIM-45" value="&lt;span style=&quot;color: rgb(0, 0, 0); font-family: Helvetica; font-size: 12px; font-style: normal; font-variant-ligatures: normal; font-variant-caps: normal; font-weight: 400; letter-spacing: normal; orphans: 2; text-align: center; text-indent: 0px; text-transform: none; widows: 2; word-spacing: 0px; -webkit-text-stroke-width: 0px; background-color: rgb(251, 251, 251); text-decoration-thickness: initial; text-decoration-style: initial; text-decoration-color: initial; float: none; display: inline !important;&quot;&gt;0:1&lt;/span&gt;" style="text;whiteSpace=wrap;html=1;" parent="WIyWlLk6GJQsqaUBKTNV-1" vertex="1">
          <mxGeometry x="550" y="750" width="50" height="40" as="geometry" />
        </mxCell>
        <mxCell id="vBIdpSivlz-trKIh2wIM-46" value="&lt;span style=&quot;color: rgb(0, 0, 0); font-family: Helvetica; font-size: 12px; font-style: normal; font-variant-ligatures: normal; font-variant-caps: normal; font-weight: 400; letter-spacing: normal; orphans: 2; text-align: center; text-indent: 0px; text-transform: none; widows: 2; word-spacing: 0px; -webkit-text-stroke-width: 0px; background-color: rgb(251, 251, 251); text-decoration-thickness: initial; text-decoration-style: initial; text-decoration-color: initial; float: none; display: inline !important;&quot;&gt;0:1&lt;/span&gt;" style="text;whiteSpace=wrap;html=1;" parent="WIyWlLk6GJQsqaUBKTNV-1" vertex="1">
          <mxGeometry x="695" y="760" width="50" height="40" as="geometry" />
        </mxCell>
        <mxCell id="vBIdpSivlz-trKIh2wIM-47" value="&lt;span style=&quot;color: rgb(0, 0, 0); font-family: Helvetica; font-size: 12px; font-style: normal; font-variant-ligatures: normal; font-variant-caps: normal; font-weight: 400; letter-spacing: normal; orphans: 2; text-align: center; text-indent: 0px; text-transform: none; widows: 2; word-spacing: 0px; -webkit-text-stroke-width: 0px; background-color: rgb(251, 251, 251); text-decoration-thickness: initial; text-decoration-style: initial; text-decoration-color: initial; float: none; display: inline !important;&quot;&gt;0:1&lt;/span&gt;" style="text;whiteSpace=wrap;html=1;" parent="WIyWlLk6GJQsqaUBKTNV-1" vertex="1">
          <mxGeometry x="900" y="750" width="40" height="40" as="geometry" />
        </mxCell>
        <mxCell id="vBIdpSivlz-trKIh2wIM-49" value="" style="curved=1;endArrow=none;html=1;rounded=0;endFill=0;" parent="WIyWlLk6GJQsqaUBKTNV-1" edge="1">
          <mxGeometry width="50" height="50" relative="1" as="geometry">
            <mxPoint x="610" y="680" as="sourcePoint" />
            <mxPoint x="860" y="680" as="targetPoint" />
            <Array as="points">
              <mxPoint x="685" y="750" />
              <mxPoint x="810" y="740" />
            </Array>
          </mxGeometry>
        </mxCell>
        <mxCell id="ILB2iNEaMgEuNSSPJGyI-0" value="&lt;b&gt;Participa&lt;/b&gt;" style="text;html=1;strokeColor=none;fillColor=none;align=center;verticalAlign=middle;whiteSpace=wrap;rounded=0;" vertex="1" parent="WIyWlLk6GJQsqaUBKTNV-1">
          <mxGeometry x="460" y="80" width="60" height="30" as="geometry" />
        </mxCell>
        <mxCell id="ILB2iNEaMgEuNSSPJGyI-1" value="&lt;b&gt;Tiene&lt;/b&gt;" style="text;html=1;strokeColor=none;fillColor=none;align=center;verticalAlign=middle;whiteSpace=wrap;rounded=0;" vertex="1" parent="WIyWlLk6GJQsqaUBKTNV-1">
          <mxGeometry x="275" y="325" width="60" height="30" as="geometry" />
        </mxCell>
        <mxCell id="ILB2iNEaMgEuNSSPJGyI-2" value="&lt;b&gt;Recibe&lt;/b&gt;" style="text;html=1;strokeColor=none;fillColor=none;align=center;verticalAlign=middle;whiteSpace=wrap;rounded=0;" vertex="1" parent="WIyWlLk6GJQsqaUBKTNV-1">
          <mxGeometry x="470" y="320" width="60" height="30" as="geometry" />
        </mxCell>
        <mxCell id="ILB2iNEaMgEuNSSPJGyI-3" value="&lt;b&gt;Visita&lt;/b&gt;" style="text;html=1;strokeColor=none;fillColor=none;align=center;verticalAlign=middle;whiteSpace=wrap;rounded=0;" vertex="1" parent="WIyWlLk6GJQsqaUBKTNV-1">
          <mxGeometry x="275" y="642.5" width="60" height="30" as="geometry" />
        </mxCell>
        <mxCell id="ILB2iNEaMgEuNSSPJGyI-4" value="&lt;b&gt;Trabaja&lt;/b&gt;" style="text;html=1;strokeColor=none;fillColor=none;align=center;verticalAlign=middle;whiteSpace=wrap;rounded=0;" vertex="1" parent="WIyWlLk6GJQsqaUBKTNV-1">
          <mxGeometry x="450" y="470" width="60" height="30" as="geometry" />
        </mxCell>
        <mxCell id="ILB2iNEaMgEuNSSPJGyI-5" value="&lt;b&gt;Reparte&lt;/b&gt;" style="text;html=1;strokeColor=none;fillColor=none;align=center;verticalAlign=middle;whiteSpace=wrap;rounded=0;" vertex="1" parent="WIyWlLk6GJQsqaUBKTNV-1">
          <mxGeometry x="775" y="375" width="60" height="30" as="geometry" />
        </mxCell>
      </root>
    </mxGraphModel>
  </diagram>
</mxfile>
